<?xml version="1.0" encoding="UTF-8" standalone="no"?>
<!DOCTYPE svg PUBLIC "-//W3C//DTD SVG 1.1//EN" "http://www.w3.org/Graphics/SVG/1.1/DTD/svg11.dtd">
<svg xmlns="http://www.w3.org/2000/svg" xmlns:xlink="http://www.w3.org/1999/xlink" version="1.1" width="842pt" height="595pt" viewBox="0 0 842 595">
<g enable-background="new">
<clipPath id="cp0">
<path transform="matrix(0,.1,.1,0,0,0)" d="M 710 1463.61 L 5410 1463.61 L 5410 7200 L 710 7200 Z "/>
</clipPath>
<g clip-path="url(#cp0)">
<path transform="matrix(0,.1,.1,0,0,0)" stroke-width="5" stroke-linecap="square" stroke-miterlimit="10" stroke-linejoin="miter" fill="none" stroke="#cbcbcb" d="M 710 1463.61 L 5410 1463.61 L 5410 7200 L 710 7200 Z "/>
<path transform="matrix(0,.1,.1,0,0,0)" stroke-width="5" stroke-linecap="square" stroke-miterlimit="10" stroke-linejoin="miter" fill="none" stroke="#cbcbcb" d="M 1287.27 1463.61 L 720 1463.61 Z "/>
<path transform="matrix(0,.1,.1,0,0,0)" stroke-width="5" stroke-linecap="square" stroke-miterlimit="10" stroke-linejoin="miter" fill="none" stroke="#cbcbcb" d="M 795.082 3871.48 L 795.082 1463.61 Z "/>
<path transform="matrix(0,.1,.1,0,0,0)" stroke-width="5" stroke-linecap="square" stroke-miterlimit="10" stroke-linejoin="miter" fill="none" stroke="#cbcbcb" d="M 845.133 1702.62 L 795.082 1702.62 Z "/>
<path transform="matrix(0,.1,.1,0,0,0)" stroke-width="5" stroke-linecap="square" stroke-miterlimit="10" stroke-linejoin="miter" fill="none" stroke="#cbcbcb" d="M 845.133 1941.64 L 795.082 1941.64 Z "/>
<path transform="matrix(0,.1,.1,0,0,0)" stroke-width="5" stroke-linecap="square" stroke-miterlimit="10" stroke-linejoin="miter" fill="none" stroke="#cbcbcb" d="M 845.133 2180.66 L 795.082 2180.66 Z "/>
<path transform="matrix(0,.1,.1,0,0,0)" stroke-width="5" stroke-linecap="square" stroke-miterlimit="10" stroke-linejoin="miter" fill="none" stroke="#cbcbcb" d="M 845.133 2419.67 L 795.082 2419.67 Z "/>
<path transform="matrix(0,.1,.1,0,0,0)" stroke-width="5" stroke-linecap="square" stroke-miterlimit="10" stroke-linejoin="miter" fill="none" stroke="#cbcbcb" d="M 845.133 2667.54 L 795.082 2667.54 Z "/>
<path transform="matrix(0,.1,.1,0,0,0)" stroke-width="5" stroke-linecap="square" stroke-miterlimit="10" stroke-linejoin="miter" fill="none" stroke="#cbcbcb" d="M 845.133 2906.56 L 795.082 2906.56 Z "/>
<path transform="matrix(0,.1,.1,0,0,0)" stroke-width="5" stroke-linecap="square" stroke-miterlimit="10" stroke-linejoin="miter" fill="none" stroke="#cbcbcb" d="M 845.133 3145.57 L 795.082 3145.57 Z "/>
<path transform="matrix(0,.1,.1,0,0,0)" stroke-width="5" stroke-linecap="square" stroke-miterlimit="10" stroke-linejoin="miter" fill="none" stroke="#cbcbcb" d="M 845.133 3384.59 L 795.082 3384.59 Z "/>
<path transform="matrix(0,.1,.1,0,0,0)" stroke-width="5" stroke-linecap="square" stroke-miterlimit="10" stroke-linejoin="miter" fill="none" stroke="#cbcbcb" d="M 845.133 3632.46 L 795.082 3632.46 Z "/>
<text xml:space="preserve" transform="matrix(.5150631 0 0 1.9415097 0 0)" font-size="5.499895" font-family="Courier"><tspan y="40.52197" x="282.44114">0</tspan></text>
<path transform="matrix(0,.1,.1,0,0,0)" stroke-width="5" stroke-linecap="square" stroke-miterlimit="10" stroke-linejoin="miter" fill="none" stroke="#cbcbcb" d="M 1287.27 3871.48 L 720 3871.48 Z "/>
<path transform="matrix(0,.1,.1,0,0,0)" stroke-width="5" stroke-linecap="square" stroke-miterlimit="10" stroke-linejoin="miter" fill="none" stroke="#cbcbcb" d="M 795.082 6279.34 L 795.082 3871.48 Z "/>
<path transform="matrix(0,.1,.1,0,0,0)" stroke-width="5" stroke-linecap="square" stroke-miterlimit="10" stroke-linejoin="miter" fill="none" stroke="#cbcbcb" d="M 845.133 4110.49 L 795.082 4110.49 Z "/>
<path transform="matrix(0,.1,.1,0,0,0)" stroke-width="5" stroke-linecap="square" stroke-miterlimit="10" stroke-linejoin="miter" fill="none" stroke="#cbcbcb" d="M 845.133 4349.51 L 795.082 4349.51 Z "/>
<path transform="matrix(0,.1,.1,0,0,0)" stroke-width="5" stroke-linecap="square" stroke-miterlimit="10" stroke-linejoin="miter" fill="none" stroke="#cbcbcb" d="M 845.133 4588.52 L 795.082 4588.52 Z "/>
<path transform="matrix(0,.1,.1,0,0,0)" stroke-width="5" stroke-linecap="square" stroke-miterlimit="10" stroke-linejoin="miter" fill="none" stroke="#cbcbcb" d="M 845.133 4827.54 L 795.082 4827.54 Z "/>
<path transform="matrix(0,.1,.1,0,0,0)" stroke-width="5" stroke-linecap="square" stroke-miterlimit="10" stroke-linejoin="miter" fill="none" stroke="#cbcbcb" d="M 845.133 5075.41 L 795.082 5075.41 Z "/>
<path transform="matrix(0,.1,.1,0,0,0)" stroke-width="5" stroke-linecap="square" stroke-miterlimit="10" stroke-linejoin="miter" fill="none" stroke="#cbcbcb" d="M 845.133 5314.43 L 795.082 5314.43 Z "/>
<path transform="matrix(0,.1,.1,0,0,0)" stroke-width="5" stroke-linecap="square" stroke-miterlimit="10" stroke-linejoin="miter" fill="none" stroke="#cbcbcb" d="M 845.133 5553.44 L 795.082 5553.44 Z "/>
<path transform="matrix(0,.1,.1,0,0,0)" stroke-width="5" stroke-linecap="square" stroke-miterlimit="10" stroke-linejoin="miter" fill="none" stroke="#cbcbcb" d="M 845.133 5792.46 L 795.082 5792.46 Z "/>
<path transform="matrix(0,.1,.1,0,0,0)" stroke-width="5" stroke-linecap="square" stroke-miterlimit="10" stroke-linejoin="miter" fill="none" stroke="#cbcbcb" d="M 845.133 6040.33 L 795.082 6040.33 Z "/>
<text xml:space="preserve" transform="matrix(.56422337 0 0 1.7723478 0 0)" font-size="6.024833" font-family="Courier"><tspan y="44.389596" x="676.7462 680.3611 683.976 687.5909 691.2058">10 ns</tspan></text>
<path transform="matrix(0,.1,.1,0,0,0)" stroke-width="5" stroke-linecap="square" stroke-miterlimit="10" stroke-linejoin="miter" fill="none" stroke="#cbcbcb" d="M 1287.27 6279.34 L 720 6279.34 Z "/>
<path transform="matrix(0,.1,.1,0,0,0)" stroke-width="5" stroke-linecap="square" stroke-miterlimit="10" stroke-linejoin="miter" fill="none" stroke="#cbcbcb" d="M 795.082 7200 L 795.082 6279.34 Z "/>
<path transform="matrix(0,.1,.1,0,0,0)" stroke-width="5" stroke-linecap="square" stroke-miterlimit="10" stroke-linejoin="miter" fill="none" stroke="#cbcbcb" d="M 845.133 6518.36 L 795.082 6518.36 Z "/>
<path transform="matrix(0,.1,.1,0,0,0)" stroke-width="5" stroke-linecap="square" stroke-miterlimit="10" stroke-linejoin="miter" fill="none" stroke="#cbcbcb" d="M 845.133 6757.38 L 795.082 6757.38 Z "/>
<path transform="matrix(0,.1,.1,0,0,0)" stroke-width="5" stroke-linecap="square" stroke-miterlimit="10" stroke-linejoin="miter" fill="none" stroke="#cbcbcb" d="M 845.133 6996.39 L 795.082 6996.39 Z "/>
<text xml:space="preserve" transform="matrix(.56422337 0 0 1.7723478 0 0)" font-size="6.024833" font-family="Courier"><tspan y="44.389596" x="1103.5045 1107.1194 1110.7343 1114.3493 1117.9641">20 ns</tspan></text>
<path transform="matrix(0,.1,.1,0,0,0)" stroke-width="5" stroke-linecap="square" stroke-miterlimit="10" stroke-linejoin="miter" fill="none" stroke="#cbcbcb" d="M 986.953 7191.15 L 986.953 1463.61 Z "/>
<path transform="matrix(0,.1,.1,0,0,0)" stroke-width="5" stroke-linecap="square" stroke-miterlimit="10" stroke-linejoin="miter" fill="none" stroke="#000000" d="M 878.504 1463.61 L 970.266 1463.61 Z "/>
<path transform="matrix(0,.1,.1,0,0,0)" stroke-width="5" stroke-linecap="square" stroke-miterlimit="10" stroke-linejoin="miter" fill="none" stroke="#000000" d="M 878.504 1915.08 L 878.504 1463.61 Z "/>
<path transform="matrix(0,.1,.1,0,0,0)" stroke-width="5" stroke-linecap="square" stroke-miterlimit="10" stroke-linejoin="miter" fill="none" stroke="#000000" d="M 970.266 1915.08 L 878.504 1915.08 Z "/>
<path transform="matrix(0,.1,.1,0,0,0)" stroke-width="5" stroke-linecap="square" stroke-miterlimit="10" stroke-linejoin="miter" fill="none" stroke="#000000" d="M 970.266 2145.25 L 970.266 1915.08 Z "/>
<path transform="matrix(0,.1,.1,0,0,0)" stroke-width="5" stroke-linecap="square" stroke-miterlimit="10" stroke-linejoin="miter" fill="none" stroke="#000000" d="M 878.504 2145.25 L 970.266 2145.25 Z "/>
<path transform="matrix(0,.1,.1,0,0,0)" stroke-width="5" stroke-linecap="square" stroke-miterlimit="10" stroke-linejoin="miter" fill="none" stroke="#000000" d="M 878.504 2596.72 L 878.504 2145.25 Z "/>
<path transform="matrix(0,.1,.1,0,0,0)" stroke-width="5" stroke-linecap="square" stroke-miterlimit="10" stroke-linejoin="miter" fill="none" stroke="#000000" d="M 970.266 2596.72 L 878.504 2596.72 Z "/>
<path transform="matrix(0,.1,.1,0,0,0)" stroke-width="5" stroke-linecap="square" stroke-miterlimit="10" stroke-linejoin="miter" fill="none" stroke="#000000" d="M 970.266 2826.89 L 970.266 2596.72 Z "/>
<path transform="matrix(0,.1,.1,0,0,0)" stroke-width="5" stroke-linecap="square" stroke-miterlimit="10" stroke-linejoin="miter" fill="none" stroke="#000000" d="M 878.504 2826.89 L 970.266 2826.89 Z "/>
<path transform="matrix(0,.1,.1,0,0,0)" stroke-width="5" stroke-linecap="square" stroke-miterlimit="10" stroke-linejoin="miter" fill="none" stroke="#000000" d="M 878.504 3057.05 L 878.504 2826.89 Z "/>
<path transform="matrix(0,.1,.1,0,0,0)" stroke-width="5" stroke-linecap="square" stroke-miterlimit="10" stroke-linejoin="miter" fill="none" stroke="#000000" d="M 970.266 3057.05 L 878.504 3057.05 Z "/>
<path transform="matrix(0,.1,.1,0,0,0)" stroke-width="5" stroke-linecap="square" stroke-miterlimit="10" stroke-linejoin="miter" fill="none" stroke="#000000" d="M 970.266 3968.85 L 970.266 3057.05 Z "/>
<path transform="matrix(0,.1,.1,0,0,0)" stroke-width="5" stroke-linecap="square" stroke-miterlimit="10" stroke-linejoin="miter" fill="none" stroke="#000000" d="M 878.504 3968.85 L 970.266 3968.85 Z "/>
<path transform="matrix(0,.1,.1,0,0,0)" stroke-width="5" stroke-linecap="square" stroke-miterlimit="10" stroke-linejoin="miter" fill="none" stroke="#000000" d="M 878.504 4199.02 L 878.504 3968.85 Z "/>
<path transform="matrix(0,.1,.1,0,0,0)" stroke-width="5" stroke-linecap="square" stroke-miterlimit="10" stroke-linejoin="miter" fill="none" stroke="#000000" d="M 970.266 4199.02 L 878.504 4199.02 Z "/>
<path transform="matrix(0,.1,.1,0,0,0)" stroke-width="5" stroke-linecap="square" stroke-miterlimit="10" stroke-linejoin="miter" fill="none" stroke="#000000" d="M 970.266 5110.82 L 970.266 4199.02 Z "/>
<path transform="matrix(0,.1,.1,0,0,0)" stroke-width="5" stroke-linecap="square" stroke-miterlimit="10" stroke-linejoin="miter" fill="none" stroke="#000000" d="M 878.504 5110.82 L 970.266 5110.82 Z "/>
<path transform="matrix(0,.1,.1,0,0,0)" stroke-width="5" stroke-linecap="square" stroke-miterlimit="10" stroke-linejoin="miter" fill="none" stroke="#000000" d="M 878.504 6022.63 L 878.504 5110.82 Z "/>
<path transform="matrix(0,.1,.1,0,0,0)" stroke-width="5" stroke-linecap="square" stroke-miterlimit="10" stroke-linejoin="miter" fill="none" stroke="#000000" d="M 970.266 6022.63 L 878.504 6022.63 Z "/>
<path transform="matrix(0,.1,.1,0,0,0)" stroke-width="5" stroke-linecap="square" stroke-miterlimit="10" stroke-linejoin="miter" fill="none" stroke="#000000" d="M 970.266 6704.26 L 970.266 6022.63 Z "/>
<path transform="matrix(0,.1,.1,0,0,0)" stroke-width="5" stroke-linecap="square" stroke-miterlimit="10" stroke-linejoin="miter" fill="none" stroke="#000000" d="M 878.504 6704.26 L 970.266 6704.26 Z "/>
<path transform="matrix(0,.1,.1,0,0,0)" stroke-width="5" stroke-linecap="square" stroke-miterlimit="10" stroke-linejoin="miter" fill="none" stroke="#000000" d="M 878.504 7200 L 878.504 6704.26 Z "/>
<path transform="matrix(0,.1,.1,0,0,0)" stroke-width="5" stroke-linecap="square" stroke-miterlimit="10" stroke-linejoin="miter" fill="none" stroke="#cbcbcb" d="M 1128.77 7191.15 L 1128.77 1463.61 Z "/>
<path transform="matrix(0,.1,.1,0,0,0)" stroke-width="5" stroke-linecap="square" stroke-miterlimit="10" stroke-linejoin="miter" fill="none" stroke="#000000" d="M 1020.32 1463.61 L 1112.09 1463.61 Z "/>
<path transform="matrix(0,.1,.1,0,0,0)" stroke-width="5" stroke-linecap="square" stroke-miterlimit="10" stroke-linejoin="miter" fill="none" stroke="#000000" d="M 1112.09 1684.92 L 1112.09 1463.61 Z "/>
<path transform="matrix(0,.1,.1,0,0,0)" stroke-width="5" stroke-linecap="square" stroke-miterlimit="10" stroke-linejoin="miter" fill="none" stroke="#000000" d="M 1020.32 1684.92 L 1112.09 1684.92 Z "/>
<path transform="matrix(0,.1,.1,0,0,0)" stroke-width="5" stroke-linecap="square" stroke-miterlimit="10" stroke-linejoin="miter" fill="none" stroke="#000000" d="M 1020.32 2145.25 L 1020.32 1684.92 Z "/>
<path transform="matrix(0,.1,.1,0,0,0)" stroke-width="5" stroke-linecap="square" stroke-miterlimit="10" stroke-linejoin="miter" fill="none" stroke="#000000" d="M 1112.09 2145.25 L 1020.32 2145.25 Z "/>
<path transform="matrix(0,.1,.1,0,0,0)" stroke-width="5" stroke-linecap="square" stroke-miterlimit="10" stroke-linejoin="miter" fill="none" stroke="#000000" d="M 1112.09 2826.89 L 1112.09 2145.25 Z "/>
<path transform="matrix(0,.1,.1,0,0,0)" stroke-width="5" stroke-linecap="square" stroke-miterlimit="10" stroke-linejoin="miter" fill="none" stroke="#000000" d="M 1020.32 2826.89 L 1112.09 2826.89 Z "/>
<path transform="matrix(0,.1,.1,0,0,0)" stroke-width="5" stroke-linecap="square" stroke-miterlimit="10" stroke-linejoin="miter" fill="none" stroke="#000000" d="M 1020.32 3057.05 L 1020.32 2826.89 Z "/>
<path transform="matrix(0,.1,.1,0,0,0)" stroke-width="5" stroke-linecap="square" stroke-miterlimit="10" stroke-linejoin="miter" fill="none" stroke="#000000" d="M 1112.09 3057.05 L 1020.32 3057.05 Z "/>
<path transform="matrix(0,.1,.1,0,0,0)" stroke-width="5" stroke-linecap="square" stroke-miterlimit="10" stroke-linejoin="miter" fill="none" stroke="#000000" d="M 1112.09 3287.21 L 1112.09 3057.05 Z "/>
<path transform="matrix(0,.1,.1,0,0,0)" stroke-width="5" stroke-linecap="square" stroke-miterlimit="10" stroke-linejoin="miter" fill="none" stroke="#000000" d="M 1020.32 3287.21 L 1112.09 3287.21 Z "/>
<path transform="matrix(0,.1,.1,0,0,0)" stroke-width="5" stroke-linecap="square" stroke-miterlimit="10" stroke-linejoin="miter" fill="none" stroke="#000000" d="M 1020.32 3508.52 L 1020.32 3287.21 Z "/>
<path transform="matrix(0,.1,.1,0,0,0)" stroke-width="5" stroke-linecap="square" stroke-miterlimit="10" stroke-linejoin="miter" fill="none" stroke="#000000" d="M 1112.09 3508.52 L 1020.32 3508.52 Z "/>
<path transform="matrix(0,.1,.1,0,0,0)" stroke-width="5" stroke-linecap="square" stroke-miterlimit="10" stroke-linejoin="miter" fill="none" stroke="#000000" d="M 1112.09 4420.33 L 1112.09 3508.52 Z "/>
<path transform="matrix(0,.1,.1,0,0,0)" stroke-width="5" stroke-linecap="square" stroke-miterlimit="10" stroke-linejoin="miter" fill="none" stroke="#000000" d="M 1020.32 4420.33 L 1112.09 4420.33 Z "/>
<path transform="matrix(0,.1,.1,0,0,0)" stroke-width="5" stroke-linecap="square" stroke-miterlimit="10" stroke-linejoin="miter" fill="none" stroke="#000000" d="M 1020.32 5110.82 L 1020.32 4420.33 Z "/>
<path transform="matrix(0,.1,.1,0,0,0)" stroke-width="5" stroke-linecap="square" stroke-miterlimit="10" stroke-linejoin="miter" fill="none" stroke="#000000" d="M 1112.09 5110.82 L 1020.32 5110.82 Z "/>
<path transform="matrix(0,.1,.1,0,0,0)" stroke-width="5" stroke-linecap="square" stroke-miterlimit="10" stroke-linejoin="miter" fill="none" stroke="#000000" d="M 1112.09 5562.3 L 1112.09 5110.82 Z "/>
<path transform="matrix(0,.1,.1,0,0,0)" stroke-width="5" stroke-linecap="square" stroke-miterlimit="10" stroke-linejoin="miter" fill="none" stroke="#000000" d="M 1020.32 5562.3 L 1112.09 5562.3 Z "/>
<path transform="matrix(0,.1,.1,0,0,0)" stroke-width="5" stroke-linecap="square" stroke-miterlimit="10" stroke-linejoin="miter" fill="none" stroke="#000000" d="M 1020.32 6022.63 L 1020.32 5562.3 Z "/>
<path transform="matrix(0,.1,.1,0,0,0)" stroke-width="5" stroke-linecap="square" stroke-miterlimit="10" stroke-linejoin="miter" fill="none" stroke="#000000" d="M 1112.09 6022.63 L 1020.32 6022.63 Z "/>
<path transform="matrix(0,.1,.1,0,0,0)" stroke-width="5" stroke-linecap="square" stroke-miterlimit="10" stroke-linejoin="miter" fill="none" stroke="#000000" d="M 1112.09 6252.79 L 1112.09 6022.63 Z "/>
<path transform="matrix(0,.1,.1,0,0,0)" stroke-width="5" stroke-linecap="square" stroke-miterlimit="10" stroke-linejoin="miter" fill="none" stroke="#000000" d="M 1020.32 6252.79 L 1112.09 6252.79 Z "/>
<path transform="matrix(0,.1,.1,0,0,0)" stroke-width="5" stroke-linecap="square" stroke-miterlimit="10" stroke-linejoin="miter" fill="none" stroke="#000000" d="M 1020.32 6934.43 L 1020.32 6252.79 Z "/>
<path transform="matrix(0,.1,.1,0,0,0)" stroke-width="5" stroke-linecap="square" stroke-miterlimit="10" stroke-linejoin="miter" fill="none" stroke="#000000" d="M 1112.09 6934.43 L 1020.32 6934.43 Z "/>
<path transform="matrix(0,.1,.1,0,0,0)" stroke-width="5" stroke-linecap="square" stroke-miterlimit="10" stroke-linejoin="miter" fill="none" stroke="#000000" d="M 1112.09 7200 L 1112.09 6934.43 Z "/>
<path transform="matrix(0,.1,.1,0,0,0)" stroke-width="5" stroke-linecap="square" stroke-miterlimit="10" stroke-linejoin="miter" fill="none" stroke="#cbcbcb" d="M 1270.59 7191.15 L 1270.59 1463.61 Z "/>
<path transform="matrix(0,.1,.1,0,0,0)" stroke-width="5" stroke-linecap="square" stroke-miterlimit="10" stroke-linejoin="miter" fill="none" stroke="#000000" d="M 1162.14 1463.61 L 1253.9 1463.61 Z "/>
<path transform="matrix(0,.1,.1,0,0,0)" stroke-width="5" stroke-linecap="square" stroke-miterlimit="10" stroke-linejoin="miter" fill="none" stroke="#000000" d="M 1253.9 1684.92 L 1253.9 1463.61 Z "/>
<path transform="matrix(0,.1,.1,0,0,0)" stroke-width="5" stroke-linecap="square" stroke-miterlimit="10" stroke-linejoin="miter" fill="none" stroke="#000000" d="M 1162.14 1684.92 L 1253.9 1684.92 Z "/>
<path transform="matrix(0,.1,.1,0,0,0)" stroke-width="5" stroke-linecap="square" stroke-miterlimit="10" stroke-linejoin="miter" fill="none" stroke="#000000" d="M 1162.14 1915.08 L 1162.14 1684.92 Z "/>
<path transform="matrix(0,.1,.1,0,0,0)" stroke-width="5" stroke-linecap="square" stroke-miterlimit="10" stroke-linejoin="miter" fill="none" stroke="#000000" d="M 1253.9 1915.08 L 1162.14 1915.08 Z "/>
<path transform="matrix(0,.1,.1,0,0,0)" stroke-width="5" stroke-linecap="square" stroke-miterlimit="10" stroke-linejoin="miter" fill="none" stroke="#000000" d="M 1253.9 2826.89 L 1253.9 1915.08 Z "/>
<path transform="matrix(0,.1,.1,0,0,0)" stroke-width="5" stroke-linecap="square" stroke-miterlimit="10" stroke-linejoin="miter" fill="none" stroke="#000000" d="M 1162.14 2826.89 L 1253.9 2826.89 Z "/>
<path transform="matrix(0,.1,.1,0,0,0)" stroke-width="5" stroke-linecap="square" stroke-miterlimit="10" stroke-linejoin="miter" fill="none" stroke="#000000" d="M 1162.14 3057.05 L 1162.14 2826.89 Z "/>
<path transform="matrix(0,.1,.1,0,0,0)" stroke-width="5" stroke-linecap="square" stroke-miterlimit="10" stroke-linejoin="miter" fill="none" stroke="#000000" d="M 1253.9 3057.05 L 1162.14 3057.05 Z "/>
<path transform="matrix(0,.1,.1,0,0,0)" stroke-width="5" stroke-linecap="square" stroke-miterlimit="10" stroke-linejoin="miter" fill="none" stroke="#000000" d="M 1253.9 5562.3 L 1253.9 3057.05 Z "/>
<path transform="matrix(0,.1,.1,0,0,0)" stroke-width="5" stroke-linecap="square" stroke-miterlimit="10" stroke-linejoin="miter" fill="none" stroke="#000000" d="M 1162.14 5562.3 L 1253.9 5562.3 Z "/>
<path transform="matrix(0,.1,.1,0,0,0)" stroke-width="5" stroke-linecap="square" stroke-miterlimit="10" stroke-linejoin="miter" fill="none" stroke="#000000" d="M 1162.14 6022.63 L 1162.14 5562.3 Z "/>
<path transform="matrix(0,.1,.1,0,0,0)" stroke-width="5" stroke-linecap="square" stroke-miterlimit="10" stroke-linejoin="miter" fill="none" stroke="#000000" d="M 1253.9 6022.63 L 1162.14 6022.63 Z "/>
<path transform="matrix(0,.1,.1,0,0,0)" stroke-width="5" stroke-linecap="square" stroke-miterlimit="10" stroke-linejoin="miter" fill="none" stroke="#000000" d="M 1253.9 6704.26 L 1253.9 6022.63 Z "/>
<path transform="matrix(0,.1,.1,0,0,0)" stroke-width="5" stroke-linecap="square" stroke-miterlimit="10" stroke-linejoin="miter" fill="none" stroke="#000000" d="M 1162.14 6704.26 L 1253.9 6704.26 Z "/>
<path transform="matrix(0,.1,.1,0,0,0)" stroke-width="5" stroke-linecap="square" stroke-miterlimit="10" stroke-linejoin="miter" fill="none" stroke="#000000" d="M 1162.14 6934.43 L 1162.14 6704.26 Z "/>
<path transform="matrix(0,.1,.1,0,0,0)" stroke-width="5" stroke-linecap="square" stroke-miterlimit="10" stroke-linejoin="miter" fill="none" stroke="#000000" d="M 1253.9 6934.43 L 1162.14 6934.43 Z "/>
<path transform="matrix(0,.1,.1,0,0,0)" stroke-width="5" stroke-linecap="square" stroke-miterlimit="10" stroke-linejoin="miter" fill="none" stroke="#000000" d="M 1253.9 7200 L 1253.9 6934.43 Z "/>
<path transform="matrix(0,.1,.1,0,0,0)" stroke-width="5" stroke-linecap="square" stroke-miterlimit="10" stroke-linejoin="miter" fill="none" stroke="#797979" d="M 1287.27 1622.95 L 853.477 1622.95 Z "/>
</g>
<path transform="matrix(0,.1,.1,0,0,0)" stroke-width="10" stroke-linecap="square" stroke-miterlimit="10" stroke-linejoin="miter" fill="none" stroke="#000000" d="M 700 710 L 5420 710 L 5420 7210 L 700 7210 Z "/>
<clipPath id="cp1">
<path transform="matrix(0,.1,.1,0,0,0)" d="M 710 720 L 5410 720 L 5410 7200 L 710 7200 Z "/>
</clipPath>
<g clip-path="url(#cp1)">
<path transform="matrix(0,.1,.1,0,0,0)" stroke-width="5" stroke-linecap="square" stroke-miterlimit="10" stroke-linejoin="miter" fill="none" stroke="#929292" d="M 710 720 L 5410 720 L 5410 7200 L 710 7200 Z "/>
<path transform="matrix(0,.1,.1,0,0,0)" stroke-width="5" stroke-linecap="square" stroke-miterlimit="10" stroke-linejoin="miter" fill="none" stroke="#cbcbcb" d="M 853.477 1454.75 L 853.477 720 Z "/>
<text xml:space="preserve" transform="matrix(.7900709 0 0 1.2657093 0 0)" font-size="17.92742" font-family="Courier"><tspan y="67.430728" x="94.49265 105.24911 116.00556 126.76201">Time</tspan></text>
<path transform="matrix(0,.1,.1,0,0,0)" d="M 861.816 737.703 L 970.26498 737.703 L 970.26498 1445.902 L 861.816 1445.902 Z " fill="#f5f5f5"/>
<path transform="matrix(0,.1,.1,0,0,0)" stroke-width="5" stroke-linecap="square" stroke-miterlimit="10" stroke-linejoin="miter" fill="none" stroke="#cbcbcb" d="M 986.953 1454.75 L 986.953 720 Z "/>
<text xml:space="preserve" transform="matrix(.95371118 0 0 1.0485355 0 0)" font-size="8.910829" font-family="Courier"><tspan y="90.148799" x="78.279369 83.62586 88.97237">a=1</tspan></text>
<path transform="matrix(0,.1,.1,0,0,0)" d="M 1003.64 737.703 L 1112.089 737.703 L 1112.089 1445.902 L 1003.64 1445.902 Z " fill="#f5f5f5"/>
<path transform="matrix(0,.1,.1,0,0,0)" stroke-width="5" stroke-linecap="square" stroke-miterlimit="10" stroke-linejoin="miter" fill="none" stroke="#cbcbcb" d="M 1128.77 1454.75 L 1128.77 720 Z "/>
<text xml:space="preserve" transform="matrix(.95371118 0 0 1.0485355 0 0)" font-size="8.910829" font-family="Courier"><tspan y="103.67414" x="78.279369 83.62586 88.97237">b=0</tspan></text>
<path transform="matrix(0,.1,.1,0,0,0)" d="M 1145.45 737.703 L 1253.8989 737.703 L 1253.8989 1445.902 L 1145.45 1445.902 Z " fill="#f5f5f5"/>
<path transform="matrix(0,.1,.1,0,0,0)" stroke-width="5" stroke-linecap="square" stroke-miterlimit="10" stroke-linejoin="miter" fill="none" stroke="#cbcbcb" d="M 1270.59 1454.75 L 1270.59 720 Z "/>
<text xml:space="preserve" transform="matrix(.95371118 0 0 1.0485355 0 0)" font-size="8.910829" font-family="Courier"><tspan y="117.19967" x="78.279369 83.62586 88.97237 94.31886 99.66536 105.011859 110.35835 115.70485 121.05135 126.39785 131.74434 137.09085 142.43735">out_c_gfpga=0</tspan></text>
</g>
</g>
</svg>
